<svg width="17" height="17" viewBox="0 0 17 17" fill="none" xmlns="http://www.w3.org/2000/svg">
<g clip-path="url(#clip0_101_536)">
<path d="M7.84999 16.36C7.38066 16.36 6.93799 16.2427 6.52199 16.008L1.89799 13.336C1.48199 13.0907 1.15666 12.7653 0.921992 12.36C0.687325 11.9547 0.569992 11.512 0.569992 11.032V5.68798C0.569992 5.20798 0.687325 4.76532 0.921992 4.35998C1.15666 3.95465 1.48199 3.62932 1.89799 3.38398L6.52199 0.711985C6.93799 0.477318 7.38066 0.359985 7.84999 0.359985C8.31933 0.359985 8.76199 0.477318 9.17799 0.711985L13.802 3.38398C14.218 3.62932 14.5433 3.95465 14.778 4.35998C15.0127 4.76532 15.13 5.20798 15.13 5.68798V11.032C15.13 11.512 15.0127 11.9547 14.778 12.36C14.5433 12.7653 14.218 13.0907 13.802 13.336L9.17799 16.008C8.76199 16.2427 8.31933 16.36 7.84999 16.36ZM2.36199 4.19998C2.09533 4.35998 1.88733 4.57065 1.73799 4.83198C1.58866 5.09332 1.51399 5.37865 1.51399 5.68798V11.032C1.51399 11.3413 1.58866 11.6267 1.73799 11.888C1.88733 12.1493 2.09533 12.36 2.36199 12.52L6.98599 15.192C7.26333 15.3413 7.55133 15.416 7.84999 15.416C8.14866 15.416 8.43666 15.3413 8.71399 15.192L13.338 12.52C13.6047 12.36 13.8127 12.1493 13.962 11.888C14.1113 11.6267 14.1913 11.3413 14.202 11.032V5.68798C14.1913 5.37865 14.1113 5.09332 13.962 4.83198C13.8127 4.57065 13.6047 4.35998 13.338 4.19998L8.71399 1.52798C8.43666 1.37865 8.14599 1.30398 7.84199 1.30398C7.53799 1.30398 7.25266 1.37865 6.98599 1.52798L2.36199 4.19998ZM10.65 7.04798C10.2553 7.03732 9.92199 6.89865 9.64999 6.63198C9.37799 6.36532 9.24199 6.03198 9.24199 5.63198C9.24199 5.23198 9.37799 4.89598 9.64999 4.62398C9.92199 4.35198 10.258 4.21598 10.658 4.21598C11.058 4.21598 11.394 4.35198 11.666 4.62398C11.938 4.89598 12.074 5.23198 12.074 5.63198C12.074 6.03198 11.938 6.36532 11.666 6.63198C11.394 6.89865 11.0553 7.03732 10.65 7.04798ZM10.65 5.14398C10.522 5.14398 10.41 5.19198 10.314 5.28798C10.218 5.38398 10.17 5.49865 10.17 5.63198C10.17 5.76532 10.218 5.87732 10.314 5.96798C10.41 6.05865 10.5247 6.10398 10.658 6.10398C10.7913 6.10398 10.9033 6.05865 10.994 5.96798C11.0847 5.87732 11.13 5.76265 11.13 5.62398C11.13 5.48532 11.0847 5.37065 10.994 5.27998C10.9033 5.18932 10.7887 5.14398 10.65 5.14398ZM9.70599 5.97598H4.26599C4.16999 5.97598 4.08733 5.94398 4.01799 5.87998C3.94866 5.81598 3.91399 5.73332 3.91399 5.63198C3.91399 5.53065 3.94866 5.44532 4.01799 5.37598C4.08733 5.30665 4.16999 5.27198 4.26599 5.27198H9.70599C9.80199 5.27198 9.88199 5.30665 9.94599 5.37598C10.01 5.44532 10.042 5.53065 10.042 5.63198C10.042 5.73332 10.01 5.81598 9.94599 5.87998C9.88199 5.94398 9.80199 5.97598 9.70599 5.97598ZM6.56999 9.86399C6.16466 9.85332 5.82866 9.71199 5.56199 9.43999C5.29533 9.16799 5.16199 8.83198 5.16199 8.43198C5.16199 8.03198 5.29799 7.69865 5.56999 7.43198C5.84199 7.16532 6.17799 7.03198 6.57799 7.03198C6.97799 7.03198 7.31133 7.16532 7.57799 7.43198C7.84466 7.69865 7.97799 8.03198 7.97799 8.43198C7.97799 8.83198 7.84466 9.16799 7.57799 9.43999C7.31133 9.71199 6.97533 9.85332 6.56999 9.86399ZM6.56999 7.94398C6.44199 7.95465 6.32999 8.00532 6.23399 8.09598C6.13799 8.18665 6.08999 8.29865 6.08999 8.43198C6.08999 8.56532 6.13799 8.67998 6.23399 8.77598C6.32999 8.87198 6.44466 8.91998 6.57799 8.91998C6.71133 8.91998 6.82333 8.87198 6.91399 8.77598C7.00466 8.67998 7.04999 8.56532 7.04999 8.43198C7.04999 8.29865 7.00466 8.18665 6.91399 8.09598C6.82333 8.00532 6.70866 7.95465 6.56999 7.94398ZM5.62599 8.79198H4.26599C4.16999 8.79198 4.08733 8.75732 4.01799 8.68798C3.94866 8.61865 3.91399 8.53332 3.91399 8.43198C3.91399 8.33065 3.94866 8.24798 4.01799 8.18398C4.08733 8.11998 4.16999 8.08798 4.26599 8.08798H5.62599C5.72199 8.08798 5.80199 8.11998 5.86599 8.18398C5.92999 8.24798 5.96199 8.33065 5.96199 8.43198C5.96199 8.53332 5.92999 8.61865 5.86599 8.68798C5.80199 8.75732 5.72199 8.79198 5.62599 8.79198ZM8.56999 12.664C8.16466 12.6533 7.82866 12.5147 7.56199 12.248C7.29533 11.9813 7.16199 11.6453 7.16199 11.24C7.16199 10.8347 7.29533 10.4987 7.56199 10.232C7.82866 9.96532 8.16466 9.83199 8.56999 9.83199C8.97533 9.83199 9.31133 9.96532 9.57799 10.232C9.84466 10.4987 9.97799 10.8347 9.97799 11.24C9.97799 11.6453 9.84466 11.9813 9.57799 12.248C9.31133 12.5147 8.97533 12.6533 8.56999 12.664ZM8.56999 10.76C8.43133 10.76 8.31666 10.8053 8.22599 10.896C8.13533 10.9867 8.08999 11.1013 8.08999 11.24C8.08999 11.3787 8.13533 11.4933 8.22599 11.584C8.31666 11.6747 8.43133 11.72 8.56999 11.72C8.70866 11.72 8.82333 11.6747 8.91399 11.584C9.00466 11.4933 9.04999 11.3787 9.04999 11.24C9.04999 11.1013 9.00466 10.9867 8.91399 10.896C8.82333 10.8053 8.70866 10.76 8.56999 10.76ZM7.60999 11.592H4.26599C4.16999 11.592 4.08733 11.5573 4.01799 11.488C3.94866 11.4187 3.91399 11.336 3.91399 11.24C3.91399 11.144 3.94866 11.0613 4.01799 10.992C4.08733 10.9227 4.16999 10.888 4.26599 10.888H7.62599C7.72199 10.888 7.80199 10.9227 7.86599 10.992C7.92999 11.0613 7.96199 11.144 7.96199 11.24C7.96199 11.336 7.92999 11.4187 7.86599 11.488C7.80199 11.5573 7.71666 11.592 7.60999 11.592ZM11.61 11.592H9.52999C9.42333 11.592 9.33799 11.5573 9.27399 11.488C9.20999 11.4187 9.17799 11.336 9.17799 11.24C9.17799 11.144 9.20999 11.0613 9.27399 10.992C9.33799 10.9227 9.42333 10.888 9.52999 10.888H11.61C11.706 10.888 11.7887 10.9227 11.858 10.992C11.9273 11.0613 11.962 11.144 11.962 11.24C11.962 11.336 11.9273 11.4187 11.858 11.488C11.7887 11.5573 11.706 11.592 11.61 11.592ZM11.61 8.79198H7.52999C7.43399 8.79198 7.35133 8.75732 7.28199 8.68798C7.21266 8.61865 7.17799 8.53332 7.17799 8.43198C7.17799 8.33065 7.21266 8.24798 7.28199 8.18398C7.35133 8.11998 7.43399 8.08798 7.52999 8.08798H11.61C11.7167 8.08798 11.802 8.11998 11.866 8.18398C11.93 8.24798 11.962 8.33065 11.962 8.43198C11.962 8.53332 11.9273 8.61865 11.858 8.68798C11.7887 8.75732 11.706 8.79198 11.61 8.79198Z" fill="#9B9FA2"/>
</g>
<defs>
<clipPath id="clip0_101_536">
<rect width="16.02" height="16" fill="white" transform="matrix(1 0 0 -1 0.559998 16.36)"/>
</clipPath>
</defs>
</svg>
