<svg width="17" height="17" viewBox="0 0 17 17" fill="none" xmlns="http://www.w3.org/2000/svg">
<g clip-path="url(#clip0_101_540)">
<path d="M8.64203 6.40798C8.31136 6.24798 7.94336 6.16798 7.53803 6.16798C7.1327 6.16798 6.7647 6.24798 6.43403 6.40798C6.0607 6.62132 5.87403 6.89332 5.87403 7.22398C5.87403 7.55465 6.0607 7.82132 6.43403 8.02398C6.7647 8.18398 7.1327 8.26398 7.53803 8.26398C7.94336 8.26398 8.31136 8.18398 8.64203 8.02398C8.82336 7.92798 8.96203 7.81065 9.05803 7.67198C9.15403 7.53332 9.20203 7.38398 9.20203 7.22398C9.20203 7.06398 9.15403 6.91465 9.05803 6.77598C8.96203 6.63732 8.82336 6.51465 8.64203 6.40798ZM8.30603 7.39998C8.0927 7.50665 7.83936 7.55998 7.54603 7.55998C7.2527 7.55998 6.99403 7.50665 6.77003 7.39998C6.69536 7.35732 6.6447 7.31998 6.61803 7.28798C6.59136 7.25598 6.57803 7.23465 6.57803 7.22398C6.57803 7.21332 6.59136 7.19198 6.61803 7.15998C6.6447 7.12798 6.69536 7.09065 6.77003 7.04798C6.98336 6.94132 7.2367 6.88798 7.53003 6.88798C7.82336 6.88798 8.08203 6.94132 8.30603 7.04798C8.3807 7.09065 8.43136 7.12798 8.45803 7.15998C8.4847 7.19198 8.49803 7.21332 8.49803 7.22398C8.49803 7.23465 8.4847 7.25598 8.45803 7.28798C8.43136 7.31998 8.3807 7.35732 8.30603 7.39998ZM6.43403 4.24798C6.7647 4.41865 7.1327 4.50398 7.53803 4.50398C7.94336 4.50398 8.31136 4.41865 8.64203 4.24798C9.01536 4.04532 9.20203 3.77865 9.20203 3.44798C9.20203 3.11732 9.01536 2.85065 8.64203 2.64798C8.31136 2.48798 7.94336 2.40798 7.53803 2.40798C7.1327 2.40798 6.7647 2.48798 6.43403 2.64798C6.0607 2.85065 5.87403 3.11732 5.87403 3.44798C5.87403 3.77865 6.0607 4.04532 6.43403 4.24798ZM6.77003 3.27198C6.98336 3.16532 7.2367 3.11198 7.53003 3.11198C7.82336 3.11198 8.08203 3.16532 8.30603 3.27198C8.3807 3.31465 8.43136 3.35198 8.45803 3.38398C8.4847 3.41598 8.49803 3.43732 8.49803 3.44798C8.49803 3.45865 8.4847 3.47998 8.45803 3.51198C8.43136 3.54398 8.3807 3.58132 8.30603 3.62398C8.08203 3.73065 7.82336 3.78398 7.53003 3.78398C7.2367 3.78398 6.98336 3.73065 6.77003 3.62398C6.69536 3.58132 6.6447 3.54398 6.61803 3.51198C6.59136 3.47998 6.57803 3.45865 6.57803 3.44798C6.57803 3.43732 6.59136 3.41598 6.61803 3.38398C6.6447 3.35198 6.69536 3.31465 6.77003 3.27198ZM9.55403 6.13598C9.87403 6.29598 10.2394 6.37598 10.65 6.37598C11.0607 6.37598 11.426 6.29598 11.746 6.13598C12.1194 5.92265 12.306 5.65065 12.306 5.31998C12.306 4.98932 12.1194 4.72265 11.746 4.51998C11.426 4.35998 11.0607 4.27998 10.65 4.27998C10.2394 4.27998 9.87403 4.35998 9.55403 4.51998C9.1807 4.72265 8.99403 4.98932 8.99403 5.31998C8.99403 5.65065 9.1807 5.92265 9.55403 6.13598ZM9.89003 5.15998C10.1034 5.04265 10.3567 4.98398 10.65 4.98398C10.9434 4.98398 11.1967 5.04265 11.41 5.15998C11.4954 5.20265 11.5514 5.23998 11.578 5.27198C11.6047 5.30398 11.618 5.32265 11.618 5.32798C11.618 5.33332 11.6047 5.35198 11.578 5.38398C11.5514 5.41598 11.4954 5.45332 11.41 5.49598C11.1967 5.61332 10.9434 5.67198 10.65 5.67198C10.3567 5.67198 10.1034 5.61332 9.89003 5.49598C9.8047 5.45332 9.7487 5.41598 9.72203 5.38398C9.69536 5.35198 9.68203 5.33332 9.68203 5.32798C9.68203 5.32265 9.69536 5.30398 9.72203 5.27198C9.7487 5.23998 9.8047 5.20265 9.89003 5.15998ZM3.33003 6.15198C3.65003 6.31198 4.01536 6.39198 4.42603 6.39198C4.8367 6.39198 5.20203 6.31198 5.52203 6.15198C5.89536 5.93865 6.08203 5.66665 6.08203 5.33598C6.08203 5.00532 5.89536 4.73865 5.52203 4.53598C5.20203 4.37598 4.8367 4.29598 4.42603 4.29598C4.01536 4.29598 3.65003 4.37598 3.33003 4.53598C2.9567 4.73865 2.77003 5.00798 2.77003 5.34398C2.77003 5.67998 2.9567 5.94932 3.33003 6.15198ZM3.66603 5.17598C3.87936 5.05865 4.1327 5.00265 4.42603 5.00798C4.71936 5.01332 4.97803 5.06932 5.20203 5.17598C5.2767 5.21865 5.32736 5.25598 5.35403 5.28798C5.3807 5.31998 5.39403 5.33865 5.39403 5.34398C5.39403 5.34932 5.3807 5.36798 5.35403 5.39998C5.32736 5.43198 5.2767 5.46932 5.20203 5.51198C4.97803 5.61865 4.71936 5.67198 4.42603 5.67198C4.1327 5.67198 3.87936 5.61865 3.66603 5.51198C3.59136 5.46932 3.5407 5.43198 3.51403 5.39998C3.48736 5.36798 3.4687 5.34398 3.45803 5.32798C3.44736 5.31198 3.5167 5.26132 3.66603 5.17598ZM13.602 3.49598L8.72203 0.679985C8.3487 0.466651 7.95403 0.359985 7.53803 0.359985C7.12203 0.359985 6.72736 0.466651 6.35403 0.679985L1.47403 3.49598C1.11136 3.70932 0.823362 3.99732 0.610029 4.35998C0.396695 4.72265 0.290029 5.11732 0.290029 5.54398V11.176C0.290029 11.6027 0.396695 11.9973 0.610029 12.36C0.823362 12.7227 1.11136 13.0107 1.47403 13.224L6.35403 16.04C6.72736 16.2533 7.12203 16.36 7.53803 16.36C7.95403 16.36 8.3487 16.2533 8.72203 16.04L13.602 13.224C13.9754 13.0107 14.266 12.7227 14.474 12.36C14.682 11.9973 14.786 11.6027 14.786 11.176V5.54398C14.786 5.11732 14.6794 4.72265 14.466 4.35998C14.2527 3.99732 13.9647 3.70932 13.602 3.49598ZM1.95403 4.31198L6.83403 1.49598C7.04736 1.36798 7.28203 1.30398 7.53803 1.30398C7.79403 1.30398 8.03403 1.36798 8.25803 1.49598L13.122 4.31198C13.346 4.43998 13.522 4.61332 13.65 4.83198C13.778 5.05065 13.842 5.28798 13.842 5.54398V8.18398C13.746 8.39732 13.5967 8.56265 13.394 8.67998L8.09803 11.736C7.92736 11.832 7.7407 11.88 7.53803 11.88C7.33536 11.88 7.1487 11.832 6.97803 11.736L1.68203 8.67998C1.49003 8.56265 1.3407 8.39732 1.23403 8.18398V5.54398C1.2447 5.28798 1.31136 5.05065 1.43403 4.83198C1.5567 4.61332 1.73003 4.43998 1.95403 4.31198ZM13.122 12.408L8.25803 15.224C8.03403 15.352 7.7967 15.416 7.54603 15.416C7.29536 15.416 7.05803 15.352 6.83403 15.224L1.95403 12.408C1.73003 12.28 1.5567 12.1067 1.43403 11.888C1.31136 11.6693 1.2447 11.432 1.23403 11.176V9.23999L1.33003 9.30399L6.62603 12.36C6.91403 12.52 7.21803 12.6 7.53803 12.6C7.85803 12.6 8.16736 12.52 8.46603 12.36L13.746 9.30399L13.842 9.23999V11.176C13.8314 11.432 13.7647 11.6693 13.642 11.888C13.5194 12.1067 13.346 12.28 13.122 12.408Z" fill="#9B9FA2"/>
</g>
<defs>
<clipPath id="clip0_101_540">
<rect width="16.02" height="16" fill="white" transform="matrix(1 0 0 -1 0.280029 16.36)"/>
</clipPath>
</defs>
</svg>
