<svg width="17" height="17" viewBox="0 0 17 17" fill="none" xmlns="http://www.w3.org/2000/svg">
<g clip-path="url(#clip0_101_74)">
<path d="M8.86201 6.71804C8.53134 6.55804 8.16334 6.47804 7.75801 6.47804C7.35268 6.47804 6.98468 6.55804 6.65401 6.71804C6.28068 6.93138 6.09401 7.20338 6.09401 7.53404C6.09401 7.86471 6.28068 8.13138 6.65401 8.33404C6.98468 8.49404 7.35268 8.57404 7.75801 8.57404C8.16334 8.57404 8.53134 8.49404 8.86201 8.33404C9.04334 8.23804 9.18201 8.12071 9.27801 7.98204C9.37401 7.84338 9.42201 7.69404 9.42201 7.53404C9.42201 7.37404 9.37401 7.22471 9.27801 7.08604C9.18201 6.94738 9.04334 6.82471 8.86201 6.71804ZM8.52601 7.71004C8.31268 7.81671 8.05934 7.87004 7.76601 7.87004C7.47268 7.87004 7.21401 7.81671 6.99001 7.71004C6.91534 7.66738 6.86468 7.63004 6.83801 7.59804C6.81134 7.56604 6.79801 7.54471 6.79801 7.53404C6.79801 7.52338 6.81134 7.50204 6.83801 7.47004C6.86468 7.43804 6.91534 7.40071 6.99001 7.35804C7.20334 7.25138 7.45668 7.19804 7.75001 7.19804C8.04334 7.19804 8.30201 7.25138 8.52601 7.35804C8.60068 7.40071 8.65134 7.43804 8.67801 7.47004C8.70468 7.50204 8.71801 7.52338 8.71801 7.53404C8.71801 7.54471 8.70468 7.56604 8.67801 7.59804C8.65134 7.63004 8.60068 7.66738 8.52601 7.71004ZM6.65401 4.55804C6.98468 4.72871 7.35268 4.81404 7.75801 4.81404C8.16334 4.81404 8.53134 4.72871 8.86201 4.55804C9.23534 4.35538 9.42201 4.08871 9.42201 3.75804C9.42201 3.42738 9.23534 3.16071 8.86201 2.95804C8.53134 2.79804 8.16334 2.71804 7.75801 2.71804C7.35268 2.71804 6.98468 2.79804 6.65401 2.95804C6.28068 3.16071 6.09401 3.42738 6.09401 3.75804C6.09401 4.08871 6.28068 4.35538 6.65401 4.55804ZM6.99001 3.58204C7.20334 3.47538 7.45668 3.42204 7.75001 3.42204C8.04334 3.42204 8.30201 3.47538 8.52601 3.58204C8.60068 3.62471 8.65134 3.66204 8.67801 3.69404C8.70468 3.72604 8.71801 3.74738 8.71801 3.75804C8.71801 3.76871 8.70468 3.79004 8.67801 3.82204C8.65134 3.85404 8.60068 3.89138 8.52601 3.93404C8.30201 4.04071 8.04334 4.09404 7.75001 4.09404C7.45668 4.09404 7.20334 4.04071 6.99001 3.93404C6.91534 3.89138 6.86468 3.85404 6.83801 3.82204C6.81134 3.79004 6.79801 3.76871 6.79801 3.75804C6.79801 3.74738 6.81134 3.72604 6.83801 3.69404C6.86468 3.66204 6.91534 3.62471 6.99001 3.58204ZM9.77401 6.44604C10.094 6.60604 10.4593 6.68604 10.87 6.68604C11.2807 6.68604 11.646 6.60604 11.966 6.44604C12.3393 6.23271 12.526 5.96071 12.526 5.63004C12.526 5.29938 12.3393 5.03271 11.966 4.83004C11.646 4.67004 11.2807 4.59004 10.87 4.59004C10.4593 4.59004 10.094 4.67004 9.77401 4.83004C9.40068 5.03271 9.21401 5.29938 9.21401 5.63004C9.21401 5.96071 9.40068 6.23271 9.77401 6.44604ZM10.11 5.47004C10.3233 5.35271 10.5767 5.29404 10.87 5.29404C11.1633 5.29404 11.4167 5.35271 11.63 5.47004C11.7153 5.51271 11.7713 5.55004 11.798 5.58204C11.8247 5.61404 11.838 5.63271 11.838 5.63804C11.838 5.64338 11.8247 5.66204 11.798 5.69404C11.7713 5.72604 11.7153 5.76338 11.63 5.80604C11.4167 5.92338 11.1633 5.98204 10.87 5.98204C10.5767 5.98204 10.3233 5.92338 10.11 5.80604C10.0247 5.76338 9.96868 5.72604 9.94201 5.69404C9.91534 5.66204 9.90201 5.64338 9.90201 5.63804C9.90201 5.63271 9.91534 5.61404 9.94201 5.58204C9.96868 5.55004 10.0247 5.51271 10.11 5.47004ZM3.55001 6.46204C3.87001 6.62204 4.23534 6.70204 4.64601 6.70204C5.05668 6.70204 5.42201 6.62204 5.74201 6.46204C6.11534 6.24871 6.30201 5.97671 6.30201 5.64604C6.30201 5.31538 6.11534 5.04871 5.74201 4.84604C5.42201 4.68604 5.05668 4.60604 4.64601 4.60604C4.23534 4.60604 3.87001 4.68604 3.55001 4.84604C3.17668 5.04871 2.99001 5.31804 2.99001 5.65404C2.99001 5.99004 3.17668 6.25938 3.55001 6.46204ZM3.88601 5.48604C4.09934 5.36871 4.35268 5.31271 4.64601 5.31804C4.93934 5.32338 5.19801 5.37938 5.42201 5.48604C5.49668 5.52871 5.54734 5.56604 5.57401 5.59804C5.60068 5.63004 5.61401 5.64871 5.61401 5.65404C5.61401 5.65938 5.60068 5.67804 5.57401 5.71004C5.54734 5.74204 5.49668 5.77938 5.42201 5.82204C5.19801 5.92871 4.93934 5.98204 4.64601 5.98204C4.35268 5.98204 4.09934 5.92871 3.88601 5.82204C3.81134 5.77938 3.76068 5.74204 3.73401 5.71004C3.70734 5.67804 3.68868 5.65404 3.67801 5.63804C3.66734 5.62204 3.73668 5.57138 3.88601 5.48604ZM13.822 3.80604L8.94201 0.990043C8.56868 0.77671 8.17401 0.670043 7.75801 0.670043C7.34201 0.670043 6.94734 0.77671 6.57401 0.990043L1.69401 3.80604C1.33134 4.01938 1.04334 4.30738 0.83001 4.67004C0.616676 5.03271 0.51001 5.42738 0.51001 5.85404V11.486C0.51001 11.9127 0.616676 12.3074 0.83001 12.67C1.04334 13.0327 1.33134 13.3207 1.69401 13.534L6.57401 16.35C6.94734 16.5634 7.34201 16.67 7.75801 16.67C8.17401 16.67 8.56868 16.5634 8.94201 16.35L13.822 13.534C14.1953 13.3207 14.486 13.0327 14.694 12.67C14.902 12.3074 15.006 11.9127 15.006 11.486V5.85404C15.006 5.42738 14.8993 5.03271 14.686 4.67004C14.4727 4.30738 14.1847 4.01938 13.822 3.80604ZM2.17401 4.62204L7.05401 1.80604C7.26734 1.67804 7.50201 1.61404 7.75801 1.61404C8.01401 1.61404 8.25401 1.67804 8.47801 1.80604L13.342 4.62204C13.566 4.75004 13.742 4.92338 13.87 5.14204C13.998 5.36071 14.062 5.59804 14.062 5.85404V8.49404C13.966 8.70738 13.8167 8.87271 13.614 8.99004L8.31801 12.046C8.14734 12.142 7.96068 12.19 7.75801 12.19C7.55534 12.19 7.36868 12.142 7.19801 12.046L1.90201 8.99004C1.71001 8.87271 1.56068 8.70738 1.45401 8.49404V5.85404C1.46468 5.59804 1.53134 5.36071 1.65401 5.14204C1.77668 4.92338 1.95001 4.75004 2.17401 4.62204ZM13.342 12.718L8.47801 15.534C8.25401 15.662 8.01668 15.726 7.76601 15.726C7.51534 15.726 7.27801 15.662 7.05401 15.534L2.17401 12.718C1.95001 12.59 1.77668 12.4167 1.65401 12.198C1.53134 11.9794 1.46468 11.742 1.45401 11.486V9.55004L1.55001 9.61404L6.84601 12.67C7.13401 12.83 7.43801 12.91 7.75801 12.91C8.07801 12.91 8.38734 12.83 8.68601 12.67L13.966 9.61404L14.062 9.55004V11.486C14.0513 11.742 13.9847 11.9794 13.862 12.198C13.7393 12.4167 13.566 12.59 13.342 12.718Z" fill="#79589F" fill-opacity="0.6"/>
</g>
<defs>
<clipPath id="clip0_101_74">
<rect width="16.02" height="16" fill="white" transform="matrix(1 0 0 -1 0.5 16.67)"/>
</clipPath>
</defs>
</svg>
