<svg width="17" height="17" viewBox="0 0 17 17" fill="none" xmlns="http://www.w3.org/2000/svg">
<g clip-path="url(#clip0_101_78)">
<path d="M13.494 3.53404L9.14201 1.00604C8.73668 0.782043 8.31001 0.670043 7.86201 0.670043C7.41401 0.670043 6.99268 0.782043 6.59801 1.00604L2.23001 3.53404C1.83535 3.76871 1.52601 4.07804 1.30201 4.46204C1.07801 4.84604 0.960679 5.26738 0.950012 5.72604V10.766C0.960679 11.2247 1.07801 11.6487 1.30201 12.038C1.52601 12.4274 1.83535 12.7394 2.23001 12.974L5.20601 14.686C5.32335 14.75 5.44335 14.766 5.56601 14.734C5.68868 14.702 5.78468 14.63 5.85401 14.518C5.92335 14.406 5.94201 14.2887 5.91001 14.166C5.87801 14.0434 5.80335 13.9447 5.68601 13.87L2.69401 12.158C2.44868 12.0087 2.25668 11.8114 2.11801 11.566C1.97935 11.3207 1.90468 11.054 1.89401 10.766V5.72604C1.90468 5.43804 1.97935 5.17138 2.11801 4.92604C2.25668 4.68071 2.44868 4.48338 2.69401 4.33404L7.06201 1.82204C7.31801 1.68338 7.58735 1.61404 7.87001 1.61404C8.15268 1.61404 8.41668 1.68338 8.66201 1.82204L13.03 4.35004C13.2753 4.48871 13.47 4.68071 13.614 4.92604C13.758 5.17138 13.83 5.43804 13.83 5.72604V10.766C13.83 11.054 13.758 11.3207 13.614 11.566C13.47 11.8114 13.2753 12.0087 13.03 12.158L10.038 13.886C9.92068 13.95 9.84601 14.0434 9.81401 14.166C9.78201 14.2887 9.79801 14.4087 9.86201 14.526C9.96868 14.6754 10.1073 14.7554 10.278 14.766C10.3633 14.766 10.4433 14.7447 10.518 14.702L13.494 12.974C13.8887 12.7394 14.198 12.4274 14.422 12.038C14.646 11.6487 14.7633 11.2247 14.774 10.766V5.72604C14.7633 5.26738 14.646 4.84604 14.422 4.46204C14.198 4.07804 13.8887 3.76871 13.494 3.53404ZM10.374 9.74204C10.47 9.82738 10.582 9.87004 10.71 9.87004C10.838 9.87004 10.95 9.82471 11.046 9.73404C11.142 9.64338 11.19 9.53404 11.19 9.40604C11.19 9.27804 11.142 9.16604 11.046 9.07004L8.19801 6.22204C8.14468 6.17938 8.09135 6.14738 8.03801 6.12604C7.92068 6.07271 7.80335 6.07271 7.68601 6.12604C7.62201 6.14738 7.56868 6.17938 7.52601 6.22204L4.67801 9.07004C4.58201 9.16604 4.53401 9.27804 4.53401 9.40604C4.53401 9.53404 4.58201 9.64338 4.67801 9.73404C4.77401 9.82471 4.88335 9.87004 5.00601 9.87004C5.12868 9.87004 5.23801 9.82738 5.33401 9.74204L7.38201 7.69404V16.19C7.39268 16.3287 7.44068 16.4434 7.52601 16.534C7.61135 16.6247 7.72068 16.67 7.85401 16.67C7.98735 16.67 8.09935 16.6247 8.19001 16.534C8.28068 16.4434 8.32601 16.3287 8.32601 16.19V7.69404L10.374 9.74204Z" fill="#79589F"/>
</g>
<defs>
<clipPath id="clip0_101_78">
<rect width="16.02" height="16" fill="white" transform="matrix(1 0 0 -1 0.940002 16.67)"/>
</clipPath>
</defs>
</svg>
