<svg width="17" height="17" viewBox="0 0 17 17" fill="none" xmlns="http://www.w3.org/2000/svg">
<g clip-path="url(#clip0_101_82)">
<path d="M11.968 7.53403C12.1494 7.42736 12.2934 7.28336 12.4 7.10203C12.5067 6.92069 12.56 6.72336 12.56 6.51003V3.53403C12.56 3.32069 12.5067 3.12336 12.4 2.94203C12.2934 2.76069 12.1494 2.61669 11.968 2.51003L9.39202 1.02203C9.21069 0.91536 9.01602 0.862027 8.80802 0.862027C8.60002 0.862027 8.40002 0.91536 8.20802 1.02203L5.63202 2.51003C5.45069 2.61669 5.30669 2.76069 5.20002 2.94203C5.09335 3.12336 5.04002 3.32069 5.04002 3.53403V6.51003C5.04002 6.72336 5.09335 6.92069 5.20002 7.10203C5.30669 7.28336 5.45069 7.42736 5.63202 7.53403L8.20802 9.02203C8.40002 9.12869 8.59735 9.18203 8.80002 9.18203C9.00269 9.18203 9.20002 9.12869 9.39202 9.02203L11.968 7.53403ZM8.67202 8.22203L6.09602 6.73403C6.01069 6.68069 5.96802 6.60603 5.96802 6.51003V3.53403C5.96802 3.43803 6.01069 3.36336 6.09602 3.31003L8.67202 1.82203C8.75735 1.77936 8.84269 1.77936 8.92802 1.82203L11.504 3.31003C11.5894 3.36336 11.632 3.43803 11.632 3.53403V6.51003C11.632 6.60603 11.5894 6.68069 11.504 6.73403L8.92802 8.22203C8.84269 8.26469 8.75735 8.26469 8.67202 8.22203ZM10.736 3.53403L9.15202 2.59003C9.04535 2.52603 8.92802 2.49403 8.80002 2.49403C8.67202 2.49403 8.54935 2.52603 8.43202 2.59003L6.86402 3.53403C6.69335 3.64069 6.60802 3.79269 6.60802 3.99003C6.60802 4.18736 6.69335 4.33936 6.86402 4.44603L8.44802 5.39003C8.55469 5.45403 8.67202 5.48603 8.80002 5.48603C8.92802 5.48603 9.05069 5.45403 9.16802 5.39003L10.736 4.44603C10.9067 4.33936 10.992 4.18736 10.992 3.99003C10.992 3.79269 10.9067 3.64069 10.736 3.53403ZM8.78402 4.79803L7.44002 3.99803L8.81602 3.18203L10.16 3.99803L8.78402 4.79803ZM7.72802 9.80603L5.15202 8.31803C4.96002 8.21136 4.76002 8.15803 4.55202 8.15803C4.34402 8.15803 4.14935 8.21136 3.96802 8.31803L1.39202 9.80603C1.21069 9.91269 1.06668 10.0567 0.960018 10.238C0.853352 10.4194 0.800018 10.6167 0.800018 10.83V13.806C0.800018 14.0194 0.853352 14.2167 0.960018 14.398C1.06668 14.5794 1.21069 14.7234 1.39202 14.83L3.96802 16.318C4.14935 16.4247 4.34402 16.478 4.55202 16.478C4.76002 16.478 4.96002 16.4247 5.15202 16.318L7.72802 14.83C7.90935 14.7234 8.05069 14.5794 8.15202 14.398C8.25335 14.2167 8.30935 14.0194 8.32002 13.806V10.83C8.30935 10.6167 8.25335 10.4194 8.15202 10.238C8.05069 10.0567 7.90935 9.91269 7.72802 9.80603ZM7.39202 13.806C7.39202 13.902 7.34935 13.9767 7.26402 14.03L4.68802 15.518C4.60269 15.5607 4.51202 15.5607 4.41602 15.518L1.84002 14.03C1.76535 13.9767 1.72269 13.902 1.71202 13.806V10.83C1.72269 10.734 1.76535 10.6594 1.84002 10.606L4.41602 9.11803C4.51202 9.07536 4.60269 9.07536 4.68802 9.11803L7.26402 10.606C7.34935 10.6594 7.39202 10.734 7.39202 10.83V13.806ZM6.49602 10.83L4.91202 9.88603C4.79469 9.82203 4.67469 9.79003 4.55202 9.79003C4.42935 9.79003 4.30935 9.82203 4.19202 9.88603L2.60802 10.83C2.44802 10.9367 2.36802 11.0887 2.36802 11.286C2.36802 11.4834 2.44802 11.6354 2.60802 11.742L4.19202 12.702C4.30935 12.7554 4.42935 12.782 4.55202 12.782C4.67469 12.782 4.79469 12.75 4.91202 12.686L6.49602 11.742C6.66669 11.646 6.75202 11.4967 6.75202 11.294C6.75202 11.0914 6.66669 10.9367 6.49602 10.83ZM4.54402 12.094L3.20002 11.294L4.56002 10.478L5.92002 11.294L4.54402 12.094ZM16.208 9.80603L13.632 8.31803C13.4507 8.21136 13.256 8.15803 13.048 8.15803C12.84 8.15803 12.6454 8.21136 12.464 8.31803L9.88802 9.80603C9.69602 9.91269 9.54935 10.0567 9.44802 10.238C9.34669 10.4194 9.29602 10.6167 9.29602 10.83V13.806C9.29602 14.0194 9.34669 14.2167 9.44802 14.398C9.54935 14.5794 9.69602 14.7234 9.88802 14.83L12.464 16.318C12.6454 16.4247 12.84 16.478 13.048 16.478C13.256 16.478 13.4507 16.4247 13.632 16.318L16.208 14.83C16.3894 14.7234 16.5334 14.5794 16.64 14.398C16.7467 14.2167 16.8 14.0194 16.8 13.806V10.83C16.8 10.6167 16.7467 10.4194 16.64 10.238C16.5334 10.0567 16.3894 9.91269 16.208 9.80603ZM15.888 13.806C15.8774 13.902 15.8294 13.9767 15.744 14.03L13.168 15.518C13.0827 15.5714 12.9974 15.5714 12.912 15.518L10.336 14.03C10.2507 13.9767 10.208 13.902 10.208 13.806V10.83C10.208 10.734 10.2507 10.6594 10.336 10.606L12.912 9.11803C12.9974 9.07536 13.0827 9.07536 13.168 9.11803L15.744 10.606C15.8294 10.6594 15.8774 10.734 15.888 10.83V13.806ZM14.992 10.83L13.408 9.88603C13.2907 9.82203 13.168 9.79003 13.04 9.79003C12.912 9.79003 12.7947 9.82203 12.688 9.88603L11.104 10.83C10.9334 10.9367 10.848 11.0887 10.848 11.286C10.848 11.4834 10.9334 11.6354 11.104 11.742L12.688 12.702C12.8054 12.7554 12.9254 12.782 13.048 12.782C13.1707 12.782 13.2907 12.75 13.408 12.686L14.992 11.742C15.152 11.646 15.232 11.4967 15.232 11.294C15.232 11.0914 15.152 10.9367 14.992 10.83ZM13.04 12.094L11.68 11.294L13.056 10.478L14.4 11.294L13.04 12.094Z" fill="#79589F" fill-opacity="0.6"/>
</g>
<defs>
<clipPath id="clip0_101_82">
<rect width="16.02" height="16" fill="white" transform="matrix(1 0 0 -1 0.790009 16.67)"/>
</clipPath>
</defs>
</svg>
