<svg width="13" height="13" viewBox="0 0 13 13" fill="none" xmlns="http://www.w3.org/2000/svg">
<g clip-path="url(#clip0_101_104)">
<path d="M9.41801 3.11803L6.15401 1.22203C5.85001 1.05403 5.53001 0.970032 5.19401 0.970032C4.85801 0.970032 4.54201 1.05403 4.24601 1.22203L0.97001 3.11803C0.67401 3.29403 0.44201 3.52603 0.27401 3.81403C0.10601 4.10203 0.0180098 4.41803 0.0100098 4.76203V8.54203C0.0180098 8.88603 0.10601 9.20403 0.27401 9.49603C0.44201 9.78803 0.67401 10.022 0.97001 10.198L3.20201 11.482C3.29001 11.53 3.38001 11.542 3.47201 11.518C3.56401 11.494 3.63601 11.44 3.68801 11.356C3.74001 11.272 3.75401 11.184 3.73001 11.092C3.70601 11 3.65001 10.926 3.56201 10.87L1.31801 9.58603C1.13401 9.47403 0.99001 9.32603 0.88601 9.14203C0.78201 8.95803 0.72601 8.75803 0.71801 8.54203V4.76203C0.72601 4.54603 0.78201 4.34603 0.88601 4.16203C0.99001 3.97803 1.13401 3.83003 1.31801 3.71803L4.59401 1.83403C4.78601 1.73003 4.98801 1.67803 5.20001 1.67803C5.41201 1.67803 5.61001 1.73003 5.79401 1.83403L9.07001 3.73003C9.25401 3.83403 9.40001 3.97803 9.50801 4.16203C9.61601 4.34603 9.67001 4.54603 9.67001 4.76203V8.54203C9.67001 8.75803 9.61601 8.95803 9.50801 9.14203C9.40001 9.32603 9.25401 9.47403 9.07001 9.58603L6.82601 10.882C6.73801 10.93 6.68201 11 6.65801 11.092C6.63401 11.184 6.64601 11.274 6.69401 11.362C6.77401 11.474 6.87801 11.534 7.00601 11.542C7.07001 11.542 7.13001 11.526 7.18601 11.494L9.41801 10.198C9.71401 10.022 9.94601 9.78803 10.114 9.49603C10.282 9.20403 10.37 8.88603 10.378 8.54203V4.76203C10.37 4.41803 10.282 4.10203 10.114 3.81403C9.94601 3.52603 9.71401 3.29403 9.41801 3.11803ZM7.07801 7.77403C7.15001 7.83803 7.23401 7.87003 7.33001 7.87003C7.42601 7.87003 7.51001 7.83603 7.58201 7.76803C7.65401 7.70003 7.69001 7.61803 7.69001 7.52203C7.69001 7.42603 7.65401 7.34203 7.58201 7.27003L5.44601 5.13403C5.40601 5.10203 5.36601 5.07803 5.32601 5.06203C5.23801 5.02203 5.15001 5.02203 5.06201 5.06203C5.01401 5.07803 4.97401 5.10203 4.94201 5.13403L2.80601 7.27003C2.73401 7.34203 2.69801 7.42603 2.69801 7.52203C2.69801 7.61803 2.73401 7.70003 2.80601 7.76803C2.87801 7.83603 2.96001 7.87003 3.05201 7.87003C3.14401 7.87003 3.22601 7.83803 3.29801 7.77403L4.83401 6.23803V12.61C4.84201 12.714 4.87801 12.8 4.94201 12.868C5.00601 12.936 5.08801 12.97 5.18801 12.97C5.28801 12.97 5.37201 12.936 5.44001 12.868C5.50801 12.8 5.54201 12.714 5.54201 12.61V6.23803L7.07801 7.77403Z" fill="#3F3F44"/>
</g>
<defs>
<clipPath id="clip0_101_104">
<rect width="12.02" height="12" fill="white" transform="matrix(1 0 0 -1 0 12.97)"/>
</clipPath>
</defs>
</svg>
