<svg width="13" height="13" viewBox="0 0 13 13" fill="none" xmlns="http://www.w3.org/2000/svg">
<g clip-path="url(#clip0_101_108)">
<path d="M6.03564 1.52204C5.95564 1.51404 5.85164 1.53604 5.72364 1.58804C5.59564 1.64004 5.46764 1.74604 5.33964 1.90604C5.22764 2.05804 5.13564 2.25804 5.06364 2.50604L4.40364 4.73804C4.38764 4.78604 4.34764 4.83404 4.28364 4.88204C4.21964 4.93004 4.15564 4.95804 4.09164 4.96604H1.53564C1.27964 4.96604 1.06364 4.99404 0.887639 5.05004C0.695639 5.13004 0.557639 5.22404 0.473639 5.33204C0.389639 5.44004 0.335639 5.53404 0.311639 5.61404C0.287639 5.69404 0.283639 5.80204 0.299639 5.93804C0.315639 6.07404 0.383639 6.22604 0.503639 6.39404C0.623639 6.53804 0.791639 6.67804 1.00764 6.81404L3.11964 8.13404C3.15164 8.15804 3.17764 8.19604 3.19764 8.24804C3.21764 8.30004 3.21964 8.34604 3.20364 8.38604L2.14764 10.894C2.06764 11.07 2.01164 11.264 1.97964 11.476C1.94764 11.688 1.98764 11.894 2.09964 12.094C2.25164 12.31 2.46164 12.42 2.72964 12.424C2.99764 12.428 3.29564 12.298 3.62364 12.034L5.86764 10.27C5.89964 10.246 5.95564 10.234 6.03564 10.234C6.11564 10.234 6.17164 10.246 6.20364 10.27L8.44764 12.034C8.77564 12.298 9.07364 12.428 9.34164 12.424C9.60964 12.42 9.81564 12.31 9.95964 12.094C10.0796 11.894 10.1236 11.688 10.0916 11.476C10.0596 11.264 10.0036 11.07 9.92364 10.894L8.86764 8.38604C8.85164 8.35404 8.85164 8.31004 8.86764 8.25404C8.88364 8.19804 8.91164 8.15804 8.95164 8.13404L11.0636 6.81404C11.2796 6.67804 11.4476 6.53804 11.5676 6.39404C11.6876 6.22604 11.7556 6.07404 11.7716 5.93804C11.7876 5.80204 11.7836 5.69404 11.7596 5.61404C11.7356 5.53404 11.6816 5.44004 11.5976 5.33204C11.5136 5.22404 11.3756 5.13004 11.1836 5.05004C11.0076 4.99404 10.7916 4.96604 10.5356 4.96604H7.96764C7.91164 4.95804 7.85164 4.93204 7.78764 4.88804C7.72364 4.84404 7.68364 4.79404 7.66764 4.73804L7.00764 2.50604C6.93564 2.25804 6.84364 2.05804 6.73164 1.90604C6.60364 1.74604 6.47564 1.64004 6.34764 1.58804C6.21964 1.53604 6.11564 1.51404 6.03564 1.52204ZM6.03564 2.12204C6.17964 2.12204 6.30764 2.30604 6.41964 2.67404L7.07964 4.90604C7.14364 5.09804 7.25764 5.25604 7.42164 5.38004C7.58564 5.50404 7.76764 5.56604 7.96764 5.56604H10.5356C10.9196 5.57404 11.1296 5.64604 11.1656 5.78204C11.2016 5.91804 11.0596 6.09004 10.7396 6.29804L8.62764 7.61804C8.45964 7.73004 8.34564 7.88004 8.28564 8.06804C8.22564 8.25604 8.23164 8.44204 8.30364 8.62604L9.37164 11.134C9.54764 11.582 9.53564 11.81 9.33564 11.818C9.21564 11.818 9.04364 11.73 8.81964 11.554L6.57564 9.79004C6.41564 9.67804 6.23364 9.62204 6.02964 9.62204C5.82564 9.62204 5.64764 9.67804 5.49564 9.79004L3.25164 11.554C3.02764 11.73 2.85564 11.818 2.73564 11.818C2.53564 11.81 2.52364 11.582 2.69964 11.134L3.75564 8.62604C3.82764 8.44204 3.83364 8.25604 3.77364 8.06804C3.71364 7.88004 3.60364 7.73004 3.44364 7.61804L1.33164 6.29804C1.01164 6.09004 0.871639 5.91804 0.911639 5.78204C0.951639 5.64604 1.15964 5.57404 1.53564 5.56604H4.09164C4.29164 5.56604 4.47564 5.50204 4.64364 5.37404C4.81164 5.24604 4.92364 5.09004 4.97964 4.90604L5.63964 2.67404C5.75964 2.30604 5.89164 2.12204 6.03564 2.12204Z" fill="#3F3F44"/>
</g>
<defs>
<clipPath id="clip0_101_108">
<rect width="12.02" height="12" fill="white" transform="matrix(1 0 0 -1 0.280029 12.97)"/>
</clipPath>
</defs>
</svg>
