<svg width="13" height="13" viewBox="0 0 13 13" fill="none" xmlns="http://www.w3.org/2000/svg">
<g clip-path="url(#clip0_101_112)">
<path d="M1.65201 9.05804V9.40604H2.34801V4.51004H1.65201V4.85804V9.05804ZM7.19601 8.44604C7.41201 8.33404 7.58801 8.16804 7.72401 7.94804C7.86001 7.72804 7.92801 7.49404 7.92801 7.24604V5.74604H7.23201V7.24604C7.22401 7.35804 7.18601 7.46804 7.11801 7.57604C7.05001 7.68404 6.96801 7.76604 6.87201 7.82204L3.04401 9.75404L3.35601 10.378L7.19601 8.44604ZM3.69201 3.40604C3.67601 2.92604 3.51001 2.52804 3.19401 2.21204C2.87801 1.89604 2.48001 1.73004 2.00001 1.71404C1.52001 1.73004 1.12201 1.89604 0.806007 2.21204C0.490007 2.52804 0.328007 2.92604 0.320007 3.40604C0.328007 3.88604 0.490007 4.28404 0.806007 4.60004C1.12201 4.91604 1.52001 5.08204 2.00001 5.09804C2.48001 5.08204 2.87801 4.91604 3.19401 4.60004C3.51001 4.28404 3.67601 3.88604 3.69201 3.40604ZM1.01601 3.40604C1.02401 3.12604 1.12001 2.89404 1.30401 2.71004C1.48801 2.52604 1.72001 2.43404 2.00001 2.43404C2.28001 2.43404 2.51201 2.52604 2.69601 2.71004C2.88001 2.89404 2.97201 3.12604 2.97201 3.40604C2.97201 3.68604 2.88001 3.91804 2.69601 4.10204C2.51201 4.28604 2.28001 4.37804 2.00001 4.37804C1.72001 4.37804 1.48801 4.28604 1.30401 4.10204C1.12001 3.91804 1.02401 3.68604 1.01601 3.40604ZM9.27201 4.41404C9.25601 3.93404 9.09001 3.53604 8.77401 3.22004C8.45801 2.90404 8.06001 2.73804 7.58001 2.72204C7.10001 2.73804 6.70201 2.90404 6.38601 3.22004C6.07001 3.53604 5.90401 3.93404 5.88801 4.41404C5.90401 4.89404 6.07001 5.29204 6.38601 5.60804C6.70201 5.92404 7.10001 6.09004 7.58001 6.10604C8.06001 6.09004 8.45801 5.92404 8.77401 5.60804C9.09001 5.29204 9.25601 4.89404 9.27201 4.41404ZM6.59601 4.41404C6.60401 4.13404 6.70001 3.90204 6.88401 3.71804C7.06801 3.53404 7.30001 3.44204 7.58001 3.44204C7.86001 3.44204 8.09201 3.53404 8.27601 3.71804C8.46001 3.90204 8.55201 4.13404 8.55201 4.41404C8.55201 4.69404 8.46001 4.92604 8.27601 5.11004C8.09201 5.29404 7.86001 5.38604 7.58001 5.38604C7.30001 5.38604 7.06801 5.29404 6.88401 5.11004C6.70001 4.92604 6.60401 4.69404 6.59601 4.41404ZM3.69201 10.558C3.67601 10.078 3.51001 9.68004 3.19401 9.36404C2.87801 9.04804 2.48001 8.88204 2.00001 8.86604C1.52001 8.88204 1.12201 9.04804 0.806007 9.36404C0.490007 9.68004 0.328007 10.078 0.320007 10.558C0.328007 11.038 0.490007 11.436 0.806007 11.752C1.12201 12.068 1.52001 12.23 2.00001 12.238C2.48001 12.23 2.87801 12.068 3.19401 11.752C3.51001 11.436 3.67601 11.038 3.69201 10.558ZM1.01601 10.558C1.02401 10.278 1.12001 10.046 1.30401 9.86204C1.48801 9.67804 1.72001 9.58604 2.00001 9.58604C2.28001 9.58604 2.51201 9.67804 2.69601 9.86204C2.88001 10.046 2.97201 10.278 2.97201 10.558C2.97201 10.838 2.88001 11.07 2.69601 11.254C2.51201 11.438 2.28001 11.53 2.00001 11.53C1.72001 11.53 1.48801 11.438 1.30401 11.254C1.12001 11.07 1.02401 10.838 1.01601 10.558Z" fill="#3F3F44"/>
</g>
<defs>
<clipPath id="clip0_101_112">
<rect width="12.02" height="12" fill="white" transform="matrix(1 0 0 -1 0.309998 12.97)"/>
</clipPath>
</defs>
</svg>
