<svg width="18" height="21" viewBox="0 0 18 21" fill="none" xmlns="http://www.w3.org/2000/svg">
<g id="Frame">
<g id="Section-/-Nav-/-Footer-/-Architects-0">
<path id="Path-0" d="M9.64528 4.48843C10.8 4.48843 11.8189 5.14866 12.3623 6.12163C12.8377 5.91313 13.3472 5.77415 13.8906 5.77415C15.9962 5.77415 17.6943 7.51159 17.6943 9.66603C17.6943 11.8205 15.9962 13.5579 13.8906 13.5579C13.6189 13.5579 13.3811 13.5232 13.1434 13.4884C12.6679 14.3572 11.7509 14.9479 10.6981 14.9479C10.2566 14.9479 9.84906 14.8436 9.47547 14.6699C9 15.8166 7.87925 16.6158 6.55472 16.6158C5.19623 16.6158 4.00754 15.7471 3.56603 14.4962C3.36226 14.5309 3.15849 14.5656 2.95471 14.5656C1.32453 14.5656 0 13.2104 0 11.5425C0 10.4305 0.577358 9.45754 1.46038 8.93631C1.29057 8.51932 1.18868 8.03283 1.18868 7.54634C1.18868 5.63514 2.71698 4.07144 4.61887 4.07144C5.80755 4.10619 6.79245 4.62743 7.40377 5.46141C7.98113 4.87067 8.76226 4.48843 9.64528 4.48843Z" fill="#00A1E0"/>
</g>
</g>
</svg>
