<svg width="49" height="49" viewBox="0 0 49 49" fill="none" xmlns="http://www.w3.org/2000/svg">
<g clip-path="url(#clip0_101_67)">
<path d="M38.622 8.64199L25.566 1.05799C24.35 0.385987 23.07 0.0499874 21.726 0.0499874C20.382 0.0499874 19.118 0.385987 17.934 1.05799L4.82998 8.64199C3.64598 9.34599 2.71798 10.274 2.04598 11.426C1.37398 12.578 1.02198 13.842 0.989981 15.218V30.338C1.02198 31.714 1.37398 32.986 2.04598 34.154C2.71798 35.322 3.64598 36.258 4.82998 36.962L13.758 42.098C14.11 42.29 14.47 42.338 14.838 42.242C15.206 42.146 15.494 41.93 15.702 41.594C15.91 41.258 15.966 40.906 15.87 40.538C15.774 40.17 15.55 39.874 15.198 39.65L6.22198 34.514C5.48598 34.066 4.90998 33.474 4.49398 32.738C4.07798 32.002 3.85398 31.202 3.82198 30.338V15.218C3.85398 14.354 4.07798 13.554 4.49398 12.818C4.90998 12.082 5.48598 11.49 6.22198 11.042L19.326 3.50599C20.094 3.08999 20.902 2.88199 21.75 2.88199C22.598 2.88199 23.39 3.08999 24.126 3.50599L37.23 11.09C37.966 11.506 38.55 12.082 38.982 12.818C39.414 13.554 39.63 14.354 39.63 15.218V30.338C39.63 31.202 39.414 32.002 38.982 32.738C38.55 33.474 37.966 34.066 37.23 34.514L28.254 39.698C27.902 39.89 27.678 40.17 27.582 40.538C27.486 40.906 27.534 41.266 27.726 41.618C28.046 42.066 28.462 42.306 28.974 42.338C29.23 42.338 29.47 42.274 29.694 42.146L38.622 36.962C39.806 36.258 40.734 35.322 41.406 34.154C42.078 32.986 42.43 31.714 42.462 30.338V15.218C42.43 13.842 42.078 12.578 41.406 11.426C40.734 10.274 39.806 9.34599 38.622 8.64199ZM29.262 27.266C29.55 27.522 29.886 27.65 30.27 27.65C30.654 27.65 30.99 27.514 31.278 27.242C31.566 26.97 31.71 26.642 31.71 26.258C31.71 25.874 31.566 25.538 31.278 25.25L22.734 16.706C22.574 16.578 22.414 16.482 22.254 16.418C21.902 16.258 21.55 16.258 21.198 16.418C21.006 16.482 20.846 16.578 20.718 16.706L12.174 25.25C11.886 25.538 11.742 25.874 11.742 26.258C11.742 26.642 11.886 26.97 12.174 27.242C12.462 27.514 12.79 27.65 13.158 27.65C13.526 27.65 13.854 27.522 14.142 27.266L20.286 21.122V46.61C20.318 47.026 20.462 47.37 20.718 47.642C20.974 47.914 21.302 48.05 21.702 48.05C22.102 48.05 22.438 47.914 22.71 47.642C22.982 47.37 23.118 47.026 23.118 46.61V21.122L29.262 27.266Z" fill="#C7B8D8"/>
</g>
<defs>
<clipPath id="clip0_101_67">
<rect width="48.02" height="48" fill="white" transform="matrix(1 0 0 -1 0.97998 48.05)"/>
</clipPath>
</defs>
</svg>
